HIERARCHY
ROOT reference
{
  OFFSET 0 0 0
  CHANNELS 6 Xposition Yposition Zposition Zrotation Xrotation Yrotation
  JOINT Hips
  {
    OFFSET 387.421 88.6843 214.036
    CHANNELS 3 Zrotation Xrotation Yrotation
    JOINT RightUpLeg
    {
      OFFSET -9.26407 -1.54033 -0.0169218
      CHANNELS 3 Zrotation Xrotation Yrotation
      JOINT RightLeg
      {
        OFFSET 0.0262756 -41.889 0.0389421
        CHANNELS 3 Zrotation Xrotation Yrotation
        JOINT RightFoot
        {
          OFFSET -0.025595 -42.7244 0.117519
          CHANNELS 3 Zrotation Xrotation Yrotation
          End Site
          {
            OFFSET 0 -7.69 17.5
          }
        }
      }
    }
    JOINT LeftUpLeg
    {
      OFFSET 9.28488 -1.63184 0.00456132
      CHANNELS 3 Zrotation Xrotation Yrotation
      JOINT LeftLeg
      {
        OFFSET -0.00133996 -41.8929 0.0117795
        CHANNELS 3 Zrotation Xrotation Yrotation
        JOINT LeftFoot
        {
          OFFSET 0.253805 -40.8902 0.809143
          CHANNELS 3 Zrotation Xrotation Yrotation
          End Site
          {
            OFFSET 0 -7.69 17.5
          }
        }
      }
    }
    JOINT Spine
    {
      OFFSET 0.04218 14.2944 0.0529257
      CHANNELS 3 Zrotation Xrotation Yrotation
      JOINT Spine1
      {
        OFFSET 0.022284 9.72228 0.00997239
        CHANNELS 3 Zrotation Xrotation Yrotation
        JOINT Spine2
        {
          OFFSET 0.0397412 10.1199 -0.0103674
          CHANNELS 3 Zrotation Xrotation Yrotation
          JOINT Spine3
          {
            OFFSET 0.0389473 9.71765 -0.00772733
            CHANNELS 3 Zrotation Xrotation Yrotation
            JOINT Neck
            {
              OFFSET 0.0437972 10.3765 0.0320322
              CHANNELS 3 Zrotation Xrotation Yrotation
              JOINT Head
              {
                OFFSET 0.0431994 9.46781 0.0291763
                CHANNELS 3 Zrotation Xrotation Yrotation
                End Site
                {
                  OFFSET 0 15.95 0
                }
              }
            }
            JOINT RightShoulder
            {
              OFFSET -3.17206 6.93005 0.0018626
              CHANNELS 3 Zrotation Xrotation Yrotation
              JOINT RightArm
              {
                OFFSET -12.781 0.0116363 0.0199633
                CHANNELS 3 Zrotation Xrotation Yrotation
                JOINT RightForeArm
                {
                  OFFSET -26.5135 -0.0113607 0.0486864
                  CHANNELS 3 Zrotation Xrotation Yrotation
                  JOINT RightHand
                  {
                    OFFSET -25.9857 -0.0984063 0.163753
                    CHANNELS 3 Zrotation Xrotation Yrotation
                    JOINT RightHandThumb1
                    {
                      OFFSET -2.48905 0.190105 3.12053
                      CHANNELS 3 Zrotation Xrotation Yrotation
                      JOINT RightHandThumb2
                      {
                        OFFSET -3.68274 0 0
                        CHANNELS 3 Zrotation Xrotation Yrotation
                        JOINT RightHandThumb3
                        {
                          OFFSET -2.55832 0 0
                          CHANNELS 3 Zrotation Xrotation Yrotation
                          End Site
                          {
                            OFFSET -2.194 0 0
                          }
                        }
                      }
                    }
                    JOINT RightInHandIndex
                    {
                      OFFSET -3.22368 0.508421 1.97842
                      CHANNELS 3 Zrotation Xrotation Yrotation
                      JOINT RightHandIndex1
                      {
                        OFFSET -5.21684 -0.091368 0.999158
                        CHANNELS 3 Zrotation Xrotation Yrotation
                        JOINT RightHandIndex2
                        {
                          OFFSET -3.61937 0 0
                          CHANNELS 3 Zrotation Xrotation Yrotation
                          JOINT RightHandIndex3
                          {
                            OFFSET -2.0521 0 0
                            CHANNELS 3 Zrotation Xrotation Yrotation
                            End Site
                            {
                              OFFSET -1.805 0 0
                            }
                          }
                        }
                      }
                    }
                    JOINT RightInHandMiddle
                    {
                      OFFSET -3.38211 0.517263 0.756737
                      CHANNELS 3 Zrotation Xrotation Yrotation
                      JOINT RightHandMiddle1
                      {
                        OFFSET -5.17411 -0.084 0.313895
                        CHANNELS 3 Zrotation Xrotation Yrotation
                        JOINT RightHandMiddle2
                        {
                          OFFSET -3.94947 0 0
                          CHANNELS 3 Zrotation Xrotation Yrotation
                          JOINT RightHandMiddle3
                          {
                            OFFSET -2.47579 0 0
                            CHANNELS 3 Zrotation Xrotation Yrotation
                            End Site
                            {
                              OFFSET -1.975 0 0
                            }
                          }
                        }
                      }
                    }
                    JOINT RightInHandRing
                    {
                      OFFSET -3.36516 0.537895 -0.128947
                      CHANNELS 3 Zrotation Xrotation Yrotation
                      JOINT RightHandRing1
                      {
                        OFFSET -4.63474 -0.022105 -0.478947
                        CHANNELS 3 Zrotation Xrotation Yrotation
                        JOINT RightHandRing2
                        {
                          OFFSET -3.44238 0 0
                          CHANNELS 3 Zrotation Xrotation Yrotation
                          JOINT RightHandRing3
                          {
                            OFFSET -2.3881 0 0
                            CHANNELS 3 Zrotation Xrotation Yrotation
                            End Site
                            {
                              OFFSET -1.857 0 0
                            }
                          }
                        }
                      }
                    }
                    JOINT RightInHandPinky
                    {
                      OFFSET -3.16105 0.469368 -1.20179
                      CHANNELS 3 Zrotation Xrotation Yrotation
                      JOINT RightHandPinky1
                      {
                        OFFSET -4.14105 -0.022105 -1.09053
                        CHANNELS 3 Zrotation Xrotation Yrotation
                        JOINT RightHandPinky2
                        {
                          OFFSET -2.75653 0 0
                          CHANNELS 3 Zrotation Xrotation Yrotation
                          JOINT RightHandPinky3
                          {
                            OFFSET -1.74189 0 0
                            CHANNELS 3 Zrotation Xrotation Yrotation
                            End Site
                            {
                              OFFSET -1.645 0 0
                            }
                          }
                        }
                      }
                    }
                  }
                }
              }
            }
            JOINT LeftShoulder
            {
              OFFSET 3.23848 6.90919 -0.0119143
              CHANNELS 3 Zrotation Xrotation Yrotation
              JOINT LeftArm
              {
                OFFSET 12.8241 -0.0554782 -0.0520121
                CHANNELS 3 Zrotation Xrotation Yrotation
                JOINT LeftForeArm
                {
                  OFFSET 26.4865 -0.0658343 -0.0244543
                  CHANNELS 3 Zrotation Xrotation Yrotation
                  JOINT LeftHand
                  {
                    OFFSET 25.985 -0.0475988 -0.0124738
                    CHANNELS 3 Zrotation Xrotation Yrotation
                    JOINT LeftHandThumb1
                    {
                      OFFSET 2.48905 0.190105 3.12053
                      CHANNELS 3 Zrotation Xrotation Yrotation
                      JOINT LeftHandThumb2
                      {
                        OFFSET 3.68274 0 0
                        CHANNELS 3 Zrotation Xrotation Yrotation
                        JOINT LeftHandThumb3
                        {
                          OFFSET 2.55832 0 0
                          CHANNELS 3 Zrotation Xrotation Yrotation
                          End Site
                          {
                            OFFSET 2.194 0 0
                          }
                        }
                      }
                    }
                    JOINT LeftInHandIndex
                    {
                      OFFSET 3.22368 0.508421 1.97842
                      CHANNELS 3 Zrotation Xrotation Yrotation
                      JOINT LeftHandIndex1
                      {
                        OFFSET 5.21684 -0.091368 0.999158
                        CHANNELS 3 Zrotation Xrotation Yrotation
                        JOINT LeftHandIndex2
                        {
                          OFFSET 3.61937 0 0
                          CHANNELS 3 Zrotation Xrotation Yrotation
                          JOINT LeftHandIndex3
                          {
                            OFFSET 2.0521 0 0
                            CHANNELS 3 Zrotation Xrotation Yrotation
                            End Site
                            {
                              OFFSET 1.805 0 0
                            }
                          }
                        }
                      }
                    }
                    JOINT LeftInHandMiddle
                    {
                      OFFSET 3.38211 0.517263 0.756737
                      CHANNELS 3 Zrotation Xrotation Yrotation
                      JOINT LeftHandMiddle1
                      {
                        OFFSET 5.17411 -0.084 0.313895
                        CHANNELS 3 Zrotation Xrotation Yrotation
                        JOINT LeftHandMiddle2
                        {
                          OFFSET 3.94947 0 0
                          CHANNELS 3 Zrotation Xrotation Yrotation
                          JOINT LeftHandMiddle3
                          {
                            OFFSET 2.47579 0 0
                            CHANNELS 3 Zrotation Xrotation Yrotation
                            End Site
                            {
                              OFFSET 1.975 0 0
                            }
                          }
                        }
                      }
                    }
                    JOINT LeftInHandRing
                    {
                      OFFSET 3.36516 0.537895 -0.128947
                      CHANNELS 3 Zrotation Xrotation Yrotation
                      JOINT LeftHandRing1
                      {
                        OFFSET 4.63474 -0.022105 -0.478947
                        CHANNELS 3 Zrotation Xrotation Yrotation
                        JOINT LeftHandRing2
                        {
                          OFFSET 3.44238 0 0
                          CHANNELS 3 Zrotation Xrotation Yrotation
                          JOINT LeftHandRing3
                          {
                            OFFSET 2.3881 0 0
                            CHANNELS 3 Zrotation Xrotation Yrotation
                            End Site
                            {
                              OFFSET 1.857 0 0
                            }
                          }
                        }
                      }
                    }
                    JOINT LeftInHandPinky
                    {
                      OFFSET 3.16105 0.469368 -1.20179
                      CHANNELS 3 Zrotation Xrotation Yrotation
                      JOINT LeftHandPinky1
                      {
                        OFFSET 4.14105 -0.022105 -1.09053
                        CHANNELS 3 Zrotation Xrotation Yrotation
                        JOINT LeftHandPinky2
                        {
                          OFFSET 2.75653 0 0
                          CHANNELS 3 Zrotation Xrotation Yrotation
                          JOINT LeftHandPinky3
                          {
                            OFFSET 1.74189 0 0
                            CHANNELS 3 Zrotation Xrotation Yrotation
                            End Site
                            {
                              OFFSET 1.645 0 0
                            }
                          }
                        }
                      }
                    }
                  }
                }
              }
            }
          }
        }
      }
    }
  }
}
MOTION
Frames: 2
Frame Time: 0.00833333
9.000000000000000000e+02 0.000000000000000000e+00 0.000000000000000000e+00 0.000000000000000000e+00 0.000000000000000000e+00 0.000000000000000000e+00 -6.788937464487322160e+00 1.221345171919077544e+00 4.258050345182194718e+01 -2.503513473744900253e+01 1.562048318260762336e+01 -1.825668500018534957e+01 2.712858199340152598e+00 -5.817761494011476131e+00 -7.160295279164374804e+00 4.095076936095963127e+00 5.000584430333299135e-03 -1.565540605569879062e+01 -2.349666380655132869e+01 1.045548898478960931e+00 -1.858138415160481927e+01 1.445314212092133843e+01 -9.459029235591712492e+00 -1.823891798007959508e+01 -1.757473081572597851e+00 6.872458103842387089e+00 -1.368496135276681613e+01 -1.015297289341602793e+00 4.329386889965824992e+00 2.483152684700574753e+01 -9.382772961251878430e-02 8.452370213711170033e-01 6.280908471159350803e+00 -2.133109920988638386e-01 1.212176430669464677e+00 9.725100303327392837e+00 6.476413434007105563e-01 -5.633952095806469759e-03 -2.434333656275560642e+00 2.459202200500943292e+00 5.442376454717801071e-01 -2.831459534318963023e+01 1.100768850759200035e+01 1.700654418819062208e+00 -2.939894902028718349e+01 -3.353346267629651045e+00 -8.277511487288807146e+00 1.754541413861889154e+01 3.012659200588172936e+00 3.127123876930779289e+01 4.232795670142114375e+01 -2.326736765986158417e+01 1.208070158596440624e+00 -4.335661261252250398e+01 5.590590694360175750e-01 2.892654713223648866e+00 -1.649431317562042754e+00 0.000000000000000000e+00 0.000000000000000000e+00 0.000000000000000000e+00 -4.795143758690048512e-15 4.182263217790827136e-16 0.000000000000000000e+00 -1.151330045647727089e-15 6.663614079187122695e-16 0.000000000000000000e+00 3.720723545379652321e-15 1.677961930901867402e-15 1.908756081805701817e-16 0.000000000000000000e+00 0.000000000000000000e+00 0.000000000000000000e+00 0.000000000000000000e+00 6.307583112836659472e-16 -2.393576092733058747e-15 0.000000000000000000e+00 6.049021472544057447e-16 2.456798605227655258e-15 3.720723545379652321e-15 1.677961930901867402e-15 1.908756081805701817e-16 0.000000000000000000e+00 2.743409779376617641e-16 2.323316750392772510e-15 0.000000000000000000e+00 -2.827781301182750725e-16 -1.620492125924922886e-15 0.000000000000000000e+00 9.728823185807340372e-16 6.783768168833900998e-16 3.720723545379652321e-15 1.677961930901867402e-15 1.908756081805701817e-16 0.000000000000000000e+00 0.000000000000000000e+00 0.000000000000000000e+00 0.000000000000000000e+00 -1.980482503419081459e-16 -1.342440237981818703e-14 0.000000000000000000e+00 1.847463422013709232e-16 2.002841980092350821e-15 3.720723545379652321e-15 1.677961930901867402e-15 1.908756081805701817e-16 0.000000000000000000e+00 0.000000000000000000e+00 0.000000000000000000e+00 0.000000000000000000e+00 -2.852036507111278861e-15 -8.628592692532501822e-16 0.000000000000000000e+00 1.153683046022445713e-16 -3.960789970198136833e-15 -3.860446229414412622e-01 2.295623463731924829e+00 1.284650786197947170e+01 -3.161311800722021914e+01 -1.116741596346585830e+01 2.979095653112568343e+01 -3.344680712318683646e+01 -2.533264659678370379e+01 -5.140091633945724681e+01 6.731917903100214318e+00 2.891267428826644892e-01 -2.170132451187309908e+00 0.000000000000000000e+00 0.000000000000000000e+00 0.000000000000000000e+00 -1.311973103135091337e-15 4.518459363210664850e-16 0.000000000000000000e+00 2.546637095443474755e-15 2.516973957691321284e-15 0.000000000000000000e+00 5.189441755832236473e-16 -6.272557375154260160e-16 -4.892832064625092172e-16 0.000000000000000000e+00 0.000000000000000000e+00 0.000000000000000000e+00 0.000000000000000000e+00 -1.622981175523854111e-15 1.779644275082637402e-16 0.000000000000000000e+00 -1.265165873406054831e-15 2.291431699654692243e-16 5.189441755832236473e-16 -6.272557375154260160e-16 -4.892832064625092172e-16 0.000000000000000000e+00 -4.797790862218522054e-16 1.806821301650954929e-16 0.000000000000000000e+00 -7.146262040265296992e-16 1.888597408030197393e-15 0.000000000000000000e+00 -3.906384286122439912e-16 4.947365310287758532e-16 5.189441755832236473e-16 -6.272557375154260160e-16 -4.892832064625092172e-16 0.000000000000000000e+00 0.000000000000000000e+00 0.000000000000000000e+00 0.000000000000000000e+00 -1.012276312098314025e-15 2.942171993522596326e-15 0.000000000000000000e+00 -3.549175923450775161e-15 3.018091877685904694e-15 5.189441755832236473e-16 -6.272557375154260160e-16 -4.892832064625092172e-16 0.000000000000000000e+00 0.000000000000000000e+00 0.000000000000000000e+00 0.000000000000000000e+00 -1.857052600473949897e-16 2.591254458998464992e-15 0.000000000000000000e+00 1.738566922136957662e-15 3.074901677351776413e-16
9.000000000000000000e+02 0.000000000000000000e+00 0.000000000000000000e+00 0.000000000000000000e+00 0.000000000000000000e+00 0.000000000000000000e+00 -6.794817961091621505e+00 1.059390090520668570e+00 4.256834620002958758e+01 -2.512384589138430258e+01 1.574721599823553575e+01 -1.819155007158844839e+01 2.686004688148131869e+00 -5.926998523973538546e+00 -7.117370098874681084e+00 4.109250902464591348e+00 3.313338318024833251e-02 -1.564525772969639839e+01 -2.353356032334521686e+01 1.193917109531054788e+00 -1.849271567591388532e+01 1.438447157499305362e+01 -9.515155201663795026e+00 -1.820849812034595416e+01 -1.754657784512710261e+00 6.830494150448616075e+00 -1.367419405661876297e+01 -1.108079263840136441e+00 4.374119426539540001e+00 2.504557027879827658e+01 -1.127902743614512260e-01 8.528963799792985689e-01 6.334260601339143371e+00 -2.468563084180247502e-01 1.221859500949396882e+00 9.815241166000086892e+00 6.483305926399187680e-01 -3.834290585500588731e-03 -2.446999996773433050e+00 2.475543608396411965e+00 5.464959824900744723e-01 -2.841586669027802259e+01 1.101681936263664063e+01 1.759760204145966567e+00 -2.954778244881185856e+01 -3.383846821814507244e+00 -8.251642060677658819e+00 1.772656760171654966e+01 2.872667078839715948e+00 3.132284799280532894e+01 4.254291888623438211e+01 -2.309808777445775974e+01 1.425507735179213809e+00 -4.350514092351167506e+01 6.112570983534564295e-01 2.917812274422822760e+00 -1.829988766859483640e+00 0.000000000000000000e+00 0.000000000000000000e+00 0.000000000000000000e+00 -4.815595707681616270e-15 4.112941113846843650e-16 0.000000000000000000e+00 -1.155739815795608383e-15 6.527090448429578942e-16 0.000000000000000000e+00 3.749382309558860083e-15 1.700997168477610222e-15 2.073904627226801189e-16 0.000000000000000000e+00 0.000000000000000000e+00 0.000000000000000000e+00 0.000000000000000000e+00 5.355790780067609778e-16 -2.817893815444518214e-15 0.000000000000000000e+00 6.734106089752011712e-16 2.384554647297637472e-15 3.749382309558860083e-15 1.700997168477610222e-15 2.073904627226801189e-16 0.000000000000000000e+00 2.654727702967878105e-16 2.299861118337270202e-15 0.000000000000000000e+00 -3.856392769867679064e-16 -1.872105500942751088e-15 0.000000000000000000e+00 9.708238162783117931e-16 6.926432379407731305e-16 3.749382309558860083e-15 1.700997168477610222e-15 2.073904627226801189e-16 0.000000000000000000e+00 0.000000000000000000e+00 0.000000000000000000e+00 0.000000000000000000e+00 -3.809942565147856269e-16 -1.426982854637049166e-14 0.000000000000000000e+00 2.140687852433785702e-16 1.967587939455548384e-15 3.749382309558860083e-15 1.700997168477610222e-15 2.073904627226801189e-16 0.000000000000000000e+00 0.000000000000000000e+00 0.000000000000000000e+00 0.000000000000000000e+00 -3.014190412973641259e-15 -1.358343471918588673e-15 0.000000000000000000e+00 1.046979614956516582e-16 -3.959921407719940737e-15 -3.730515537656161063e-01 2.274478270524619816e+00 1.287460533677689511e+01 -3.184017935277334388e+01 -1.122866793710078248e+01 3.000458525781329300e+01 -3.395548190495502894e+01 -2.547324733931740326e+01 -5.215633796637023067e+01 6.871981873528902440e+00 1.621729926361499263e-01 -2.205677095382806208e+00 0.000000000000000000e+00 0.000000000000000000e+00 0.000000000000000000e+00 -1.321016719889841408e-15 4.331246802647700407e-16 0.000000000000000000e+00 2.619355799255923118e-15 2.525736050080223031e-15 0.000000000000000000e+00 5.375187871565066186e-16 -5.856916676556280108e-16 -4.878764870585218761e-16 0.000000000000000000e+00 0.000000000000000000e+00 0.000000000000000000e+00 0.000000000000000000e+00 -1.715791287057729655e-15 3.641933677101540169e-16 0.000000000000000000e+00 -1.269641685141295589e-15 3.325890545503906196e-16 5.375187871565066186e-16 -5.856916676556280108e-16 -4.878764870585218761e-16 0.000000000000000000e+00 -5.362845794187307736e-16 2.376396084543435347e-16 0.000000000000000000e+00 -7.477830688707007812e-16 2.070621783246942990e-15 0.000000000000000000e+00 -3.867642780471034529e-16 6.139505082768938404e-16 5.375187871565066186e-16 -5.856916676556280108e-16 -4.878764870585218761e-16 0.000000000000000000e+00 0.000000000000000000e+00 0.000000000000000000e+00 0.000000000000000000e+00 -9.999118716095398937e-16 3.051485023336183014e-15 0.000000000000000000e+00 -3.582904490403749150e-15 3.079266402840041942e-15 5.375187871565066186e-16 -5.856916676556280108e-16 -4.878764870585218761e-16 0.000000000000000000e+00 0.000000000000000000e+00 0.000000000000000000e+00 0.000000000000000000e+00 -1.792271420016653518e-16 2.642216070617649380e-15 0.000000000000000000e+00 1.701197831415474333e-15 3.364400437683322322e-16
